<?xml version="1.0" encoding="UTF-8"?> <svg xmlns="http://www.w3.org/2000/svg" width="100" height="100" viewBox="0 0 100 100" fill="none"> <circle cx="50" cy="50" r="49.5" stroke="#FDFAF0"></circle> <path d="M69.7373 29.3678C69.7373 29.3678 74.3626 27.5643 73.9772 31.9444C73.8487 33.748 72.6924 40.0605 71.793 46.8883L68.7094 67.1142C68.7094 67.1142 68.4525 70.0772 66.1398 70.5925C63.827 71.1078 60.3581 68.789 59.7156 68.2736C59.2017 67.8872 50.0795 62.0899 46.8674 59.2557C45.968 58.4828 44.9401 56.9368 46.9958 55.1332L60.4866 42.2506C62.0284 40.7047 63.5701 37.0975 57.146 41.4776L39.1585 53.7162C39.1585 53.7162 37.1027 55.0044 33.2483 53.845L24.8969 51.2685C24.8969 51.2685 21.8133 49.3361 27.0811 47.4036C39.9294 41.3487 55.7328 35.165 69.7373 29.3678Z" fill="#FDFAF0"></path> </svg> 