<?xml version="1.0" encoding="UTF-8"?> <svg xmlns="http://www.w3.org/2000/svg" width="100" height="100" viewBox="0 0 100 100" fill="none"> <circle cx="50" cy="50" r="49.5" stroke="#FDFAF0"></circle> <path d="M27.7633 73.3332L30.9179 61.7412C28.8393 58.1778 27.7472 54.1252 27.7539 49.9998C27.7539 37.1128 38.2003 26.6665 51.0873 26.6665C63.9743 26.6665 74.4206 37.1128 74.4206 49.9998C74.4206 62.8868 63.9743 73.3332 51.0873 73.3332C46.9638 73.3398 42.9128 72.2486 39.3506 70.1715L27.7633 73.3332ZM42.6663 39.0518C42.3649 39.0705 42.0705 39.1499 41.8006 39.2852C41.5475 39.4285 41.3164 39.6077 41.1146 39.8172C40.8346 40.0808 40.6759 40.3095 40.5056 40.5312C39.6432 41.6535 39.1794 43.0311 39.1873 44.4465C39.1919 45.5898 39.4906 46.7028 39.9573 47.7435C40.9116 49.8482 42.4819 52.0765 44.5563 54.1415C45.0556 54.6385 45.5433 55.1378 46.0683 55.6022C48.6428 57.8689 51.7109 59.5036 55.0283 60.3762L56.3559 60.5792C56.7876 60.6025 57.2193 60.5698 57.6533 60.5488C58.3328 60.5138 58.9964 60.3298 59.5969 60.0098C59.9025 59.8524 60.2007 59.6812 60.4906 59.4965C60.4906 59.4965 60.5909 59.4312 60.7823 59.2865C61.0973 59.0532 61.2909 58.8875 61.5523 58.6145C61.7459 58.4138 61.9139 58.1782 62.0423 57.9098C62.2243 57.5295 62.4063 56.8038 62.4809 56.1995C62.5369 55.7375 62.5206 55.4855 62.5136 55.3292C62.5043 55.0795 62.2966 54.8205 62.0703 54.7108L60.7123 54.1018C60.7123 54.1018 58.6823 53.2175 57.4433 52.6528C57.3126 52.5959 57.1726 52.5635 57.0303 52.5572C56.8706 52.5408 56.7093 52.5587 56.5572 52.6098C56.4051 52.661 56.2656 52.744 56.1483 52.8535V52.8488C56.1366 52.8488 55.9803 52.9818 54.2933 55.0258C54.1964 55.1559 54.0631 55.2543 53.9101 55.3083C53.7572 55.3623 53.5917 55.3696 53.4346 55.3292C53.2826 55.2885 53.1336 55.2371 52.9889 55.1752C52.6996 55.0538 52.5993 55.0072 52.4009 54.9208L52.3893 54.9162C51.0544 54.3334 49.8185 53.5461 48.7259 52.5828C48.4319 52.3262 48.1589 52.0462 47.8789 51.7755C46.961 50.8964 46.1609 49.9019 45.4989 48.8168L45.3613 48.5952C45.2624 48.4462 45.1824 48.2855 45.1233 48.1168C45.0346 47.7738 45.2656 47.4985 45.2656 47.4985C45.2656 47.4985 45.8326 46.8778 46.0963 46.5418C46.3158 46.2626 46.5206 45.9721 46.7099 45.6715C46.9853 45.2282 47.0716 44.7732 46.9269 44.4208C46.2736 42.8248 45.5969 41.2358 44.9016 39.6585C44.7639 39.3458 44.3556 39.1218 43.9846 39.0775C43.8586 39.0635 43.7326 39.0495 43.6066 39.0402C43.2933 39.0246 42.9793 39.0277 42.6663 39.0495V39.0518Z" fill="#FDFAF0"></path> </svg> 